<?xml version="1.0" encoding="utf-8"?>
<!-- Generator: Adobe Illustrator 27.0.1, SVG Export Plug-In . SVG Version: 6.00 Build 0)  -->
<svg version="1.1" id="Layer_1" xmlns="http://www.w3.org/2000/svg" xmlns:xlink="http://www.w3.org/1999/xlink" x="0px" y="0px"
	 viewBox="0 0 512 512" style="enable-background:new 0 0 512 512;" xml:space="preserve">
<style type="text/css">
	.st0{fill:#C9E4DD;}
	.st1{fill:#94CABA;}
</style>
<path class="st0" d="M295.09,91.12h-88c-6.63,0-12-5.37-12-12s5.37-12,12-12h88c6.63,0,12,5.37,12,12S301.71,91.12,295.09,91.12z"/>
<path class="st0" d="M127.09,148.12h-87c-6.63,0-12-5.37-12-12s5.37-12,12-12h87c6.63,0,12,5.37,12,12S133.71,148.12,127.09,148.12z
	"/>
<path class="st0" d="M412.08,347.12h-120c-6.63,0-12-5.37-12-12s5.37-12,12-12h120c6.63,0,12,5.37,12,12
	S418.71,347.12,412.08,347.12z"/>
<path class="st0" d="M368.09,148h-120c-6.63,0-12-5.37-12-12s5.37-12,12-12h120c6.63,0,12,5.37,12,12S374.71,148,368.09,148z"/>
<path class="st0" d="M152.09,347.12h-88c-6.63,0-12-5.37-12-12s5.37-12,12-12h88c6.63,0,12,5.37,12,12S158.71,347.12,152.09,347.12z
	"/>
<path class="st1" d="M236,348.88h-32c-6.63,0-12-5.37-12-12s5.37-12,12-12h32c6.63,0,12,5.37,12,12S242.63,348.88,236,348.88z"/>
<path class="st0" d="M448,260h-72c-6.63,0-12-5.37-12-12s5.37-12,12-12h72c6.63,0,12,5.37,12,12S454.63,260,448,260z"/>
<path class="st0" d="M160,220H88c-6.63,0-12-5.37-12-12s5.37-12,12-12h72c6.63,0,12,5.37,12,12S166.63,220,160,220z"/>
<path class="st0" d="M340.83,292h-139.5c-12.84,0-23.25-5.37-23.25-12s10.41-12,23.25-12h139.5c12.84,0,23.25,5.37,23.25,12
	S353.67,292,340.83,292z"/>
<path class="st1" d="M128,292h-24c-6.63,0-12-5.37-12-12s5.37-12,12-12h24c6.63,0,12,5.37,12,12S134.63,292,128,292z"/>
<path class="st0" d="M56,292H16c-6.63,0-12-5.37-12-12s5.37-12,12-12h40c6.63,0,12,5.37,12,12S62.63,292,56,292z"/>
<path class="st1" d="M200,148h-25c-6.63,0-12-5.37-12-12s5.37-12,12-12h25c6.63,0,12,5.37,12,12S206.63,148,200,148z"/>
<path class="st1" d="M437.5,196h-12.91H412.5h-6.91h-6h-13h-6h-18.5h-0.5h-24h-0.5h-21.91h-2.59h-22.41c-0.7,0-1.38,0.07-2.04,0.19
	c-0.67-0.11-1.35-0.19-2.04-0.19h-25c-0.7,0-1.38,0.07-2.04,0.19c-0.67-0.11-1.35-0.19-2.04-0.19h-25c-6.63,0-12,5.37-12,12
	c0,6.63,5.37,12,12,12h25c0.7,0,1.38-0.07,2.04-0.19c0.67,0.11,1.35,0.19,2.04,0.19h25c0.7,0,1.38-0.07,2.04-0.19
	c0.67,0.11,1.35,0.19,2.04,0.19h22.41h2.59h21.91h0.5h24h0.5h18.5h6h13h6h6.91h12.09h12.91c6.63,0,12-5.37,12-12
	C449.5,201.37,444.13,196,437.5,196z"/>
</svg>
