<svg id="Flat_final" height="512" viewBox="0 0 512 512" width="512" xmlns="http://www.w3.org/2000/svg" data-name="Flat final"><path d="m445.767 223.331a76.324 76.324 0 0 0 -141.031-57.631 58.514 58.514 0 0 0 -85.1 35.054 76.671 76.671 0 1 0 -20.342 150.6h238.438a64.261 64.261 0 0 0 8.035-128.018z" fill="#a5ddf8"/><path d="m121.663 288.362a98.076 98.076 0 1 1 62.88 22.807 97.868 97.868 0 0 1 -62.88-22.807" fill="#f9ae00"/><g fill="#fdd83b"><path d="m184.543 82.108a10 10 0 0 1 -10-10v-33.555a10 10 0 0 1 20 0v33.555a10 10 0 0 1 -10 10z"/><path d="m184.543 397.638a10 10 0 0 1 -10-10v-33.555a10 10 0 1 1 20 0v33.555a10 10 0 0 1 -10 10z"/><path d="m114.059 101a9.995 9.995 0 0 1 -8.67-5l-16.778-29.063a10 10 0 0 1 17.321-10l16.777 29.063a10 10 0 0 1 -8.65 15z"/><path d="m271.823 374.255a9.995 9.995 0 0 1 -8.669-5l-16.778-29.06a10 10 0 0 1 17.321-10l16.777 29.06a10 10 0 0 1 -8.651 15z"/><path d="m62.435 152.6a9.957 9.957 0 0 1 -4.991-1.342l-29.06-16.778a10 10 0 1 1 10-17.32l29.06 16.778a10 10 0 0 1 -5.009 18.662z"/><path d="m335.692 310.368a9.946 9.946 0 0 1 -4.991-1.341l-29.06-16.777a10 10 0 0 1 10-17.321l29.06 16.778a10 10 0 0 1 -5.009 18.661z"/><path d="m43.556 223.1h-33.556a10 10 0 0 1 0-20h33.556a10 10 0 0 1 0 20z"/><path d="m33.394 310.368a10 10 0 0 1 -5.01-18.661l29.06-16.778a10 10 0 0 1 10 17.321l-29.06 16.777a9.953 9.953 0 0 1 -4.99 1.341z"/><path d="m306.65 152.6a10 10 0 0 1 -5.009-18.662l29.06-16.778a10 10 0 1 1 10 17.32l-29.06 16.778a9.957 9.957 0 0 1 -4.991 1.342z"/><path d="m97.262 374.255a10 10 0 0 1 -8.651-15l16.778-29.06a10 10 0 0 1 17.32 10l-16.777 29.06a10 10 0 0 1 -8.67 5z"/><path d="m255.027 101a10 10 0 0 1 -8.651-15l16.778-29.06a10 10 0 0 1 17.32 10l-16.774 29.06a10 10 0 0 1 -8.673 5z"/></g><path d="m369.088 345.429a76.323 76.323 0 0 0 -141.03-57.629 58.515 58.515 0 0 0 -85.1 35.055 76.671 76.671 0 1 0 -20.342 150.6h238.438a64.261 64.261 0 0 0 8.034-128.018z" fill="#80cdf6"/></svg>